<svg width="186" height="247" viewBox="0 0 186 247" fill="none" xmlns="http://www.w3.org/2000/svg">
<path d="M92.961 246.149C144.302 246.149 185.922 204.529 185.922 153.188C185.922 101.847 144.302 60.2271 92.961 60.2271C41.6201 60.2271 0 101.847 0 153.188C0 204.529 41.6201 246.149 92.961 246.149Z" fill="#3564e4ff"/>
<path d="M83.744 188.65C81.6527 188.653 79.6171 187.977 77.944 186.722L77.844 186.644L55.997 169.932C53.9746 168.358 52.6565 166.048 52.3302 163.506C52.0038 160.965 52.6957 158.397 54.2549 156.363C55.8142 154.329 58.1142 152.994 60.6537 152.649C63.1931 152.305 65.7658 152.978 67.811 154.522L81.962 165.374L115.401 121.749C116.176 120.737 117.142 119.887 118.246 119.249C119.349 118.611 120.567 118.196 121.831 118.029C123.095 117.862 124.379 117.946 125.61 118.275C126.841 118.604 127.996 119.173 129.007 119.949L128.8 120.237L129.013 119.949C131.054 121.516 132.39 123.83 132.728 126.381C133.065 128.933 132.377 131.514 130.813 133.558L91.481 184.848C90.571 186.03 89.4011 186.986 88.062 187.642C86.7228 188.299 85.2504 188.638 83.759 188.634L83.744 188.65Z" fill="white"/>
<path d="M30.853 83.9061C29.9571 83.9032 29.0988 83.5458 28.4655 82.9122C27.8322 82.2785 27.4754 81.4199 27.473 80.5241C27.4691 80.258 27.499 79.9926 27.562 79.7341L45.062 2.64306C45.1946 2.06229 45.4775 1.52656 45.8823 1.08952C46.2872 0.65248 46.7997 0.329478 47.3687 0.152861C47.9376 -0.0237556 48.543 -0.0477868 49.1241 0.0831743C49.7053 0.214135 50.2418 0.495492 50.68 0.899065L108.704 54.6271C109.141 55.0318 109.463 55.5441 109.64 56.1127C109.816 56.6813 109.841 57.2863 109.71 57.8672C109.579 58.448 109.298 58.9844 108.895 59.4226C108.492 59.8608 107.981 60.1854 107.413 60.3641L31.873 83.7541C31.5424 83.855 31.1987 83.9062 30.853 83.9061Z" fill="#3F3D56"/>
<path d="M78.311 27.5501L41.864 20.2971L42.438 17.7661L74.664 24.1721L78.311 27.5501Z" fill="white"/>
<path d="M107.01 54.1351L37.325 40.2691L37.899 37.7251L103.357 50.7431L107.01 54.1351Z" fill="white"/>
<path d="M82.08 67.3891L76.85 69.0061L32.798 60.2401L33.371 57.6961L82.08 67.3891Z" fill="white"/>
</svg>
