<svg width="660" height="303" viewBox="0 0 660 303" fill="none" xmlns="http://www.w3.org/2000/svg">
<path d="M500.947 175.984C503.721 177.459 507.167 176.406 508.643 173.632C510.118 170.857 509.065 167.411 506.291 165.936C503.516 164.46 500.071 165.513 498.595 168.288C497.119 171.062 498.172 174.508 500.947 175.984Z" fill="#FF6584"/>
<path d="M496.809 239.531C499.583 241.006 503.029 239.953 504.504 237.179C505.98 234.404 504.927 230.958 502.153 229.483C499.378 228.007 495.932 229.06 494.457 231.835C492.981 234.609 494.034 238.055 496.809 239.531Z" fill="#3560d8ff"/>
<path d="M479.711 89.8886C484.796 93.0185 489.067 97.3089 492.173 102.408C495.279 107.507 497.133 113.27 497.582 119.224C497.7 120.907 497.994 122.841 496.619 124.107C496.112 124.601 495.452 124.909 494.746 124.98C494.041 125.051 493.333 124.88 492.737 124.496C492.045 123.917 491.564 123.125 491.368 122.244C491.172 121.364 491.272 120.443 491.652 119.625C492.033 118.806 492.672 118.137 493.472 117.719C494.272 117.301 495.188 117.159 496.076 117.315C500.553 117.699 502.952 122.061 504.906 125.563C509.351 133.539 514.696 141.456 522.634 146.316C529.98 150.815 539.705 152.168 547.43 147.831C548.78 147.076 547.514 145.032 546.168 145.787C538.506 150.092 528.794 147.931 521.968 143.006C517.949 139.981 514.478 136.29 511.705 132.093C510.24 129.966 508.897 127.759 507.625 125.513C506.474 123.263 505.126 121.12 503.596 119.108C500.955 115.923 496.42 113.65 492.363 115.593C488.574 117.403 487.637 123.271 490.874 126.069C491.598 126.657 492.456 127.057 493.371 127.232C494.287 127.407 495.232 127.352 496.121 127.073C497.011 126.793 497.817 126.297 498.468 125.63C499.118 124.962 499.593 124.143 499.85 123.247C500.417 121.296 500.008 118.875 499.748 116.895C498.974 110.936 496.874 105.225 493.601 100.185C490.329 95.1441 485.967 90.9017 480.838 87.7699C479.51 86.9774 478.385 89.0997 479.711 89.8886Z" fill="#CCCCCC"/>
<path d="M643.342 80.767C639.298 78.2781 635.901 74.8662 633.43 70.8111C630.959 66.7559 629.485 62.1729 629.127 57.4378C629.033 56.0989 628.799 54.5592 629.892 53.5548C630.296 53.1613 630.821 52.9164 631.382 52.8601C631.943 52.8037 632.506 52.9393 632.98 53.2447C633.527 53.7067 633.908 54.3359 634.062 55.0353C634.216 55.7348 634.136 56.4656 633.834 57.1151C633.532 57.7645 633.025 58.2966 632.391 58.6293C631.756 58.9619 631.03 59.0766 630.324 58.9556C626.765 58.6482 624.857 55.1815 623.301 52.3959C619.766 46.0524 615.515 39.7552 609.199 35.8877C603.36 32.3109 595.621 31.2323 589.477 34.6824C588.401 35.286 589.409 36.9114 590.48 36.3076C596.573 32.8857 604.3 34.5979 609.727 38.5186C612.924 40.9253 615.685 43.8615 617.89 47.1999C619.055 48.891 620.124 50.6471 621.135 52.4362C622.05 54.2255 623.122 55.93 624.338 57.5298C626.439 60.0638 630.043 61.8694 633.271 60.3247C633.99 59.9343 634.607 59.381 635.074 58.7092C635.541 58.0374 635.844 57.2656 635.959 56.4557C636.074 55.6458 635.998 54.8202 635.737 54.0449C635.476 53.2696 635.037 52.5662 634.455 51.991C633.88 51.5231 633.198 51.2052 632.469 51.0658C631.741 50.9264 630.99 50.9698 630.282 51.1921C629.575 51.4145 628.933 51.8088 628.416 52.3398C627.898 52.8708 627.52 53.5219 627.316 54.2347C627.015 55.908 627.042 57.624 627.397 59.2868C628.013 64.0279 629.685 68.5705 632.289 72.58C634.893 76.5894 638.363 79.9636 642.445 82.454C643.501 83.0849 644.396 81.3956 643.342 80.767Z" fill="#CCCCCC"/>
<path d="M618.769 136.236L613.745 133.564L604.965 150.072L609.989 152.744L618.769 136.236Z" fill="#CCCCCC"/>
<path d="M543.641 81.5135L548.993 79.8766L543.615 62.293L538.263 63.93L543.641 81.5135Z" fill="#B3B3B3"/>
<path d="M447.892 258.163L449.529 263.515L467.112 258.137L465.475 252.785L447.892 258.163Z" fill="#FF6584"/>
<path d="M307.76 260.19C359.101 260.19 400.721 218.57 400.721 167.229C400.721 115.888 359.101 74.2679 307.76 74.2679C256.419 74.2679 214.799 115.888 214.799 167.229C214.799 218.57 256.419 260.19 307.76 260.19Z" fill="#4771e2ff"/>
<path d="M298.543 202.691C296.452 202.694 294.416 202.018 292.743 200.763L292.643 200.685L270.796 183.973C268.774 182.399 267.456 180.089 267.129 177.547C266.803 175.005 267.495 172.438 269.054 170.404C270.613 168.37 272.913 167.035 275.453 166.69C277.992 166.345 280.565 167.018 282.61 168.563L296.761 179.415L330.2 135.79C330.975 134.778 331.941 133.928 333.045 133.29C334.148 132.652 335.366 132.237 336.63 132.07C337.894 131.903 339.178 131.986 340.409 132.316C341.64 132.645 342.795 133.214 343.806 133.99L343.599 134.278L343.812 133.99C345.853 135.557 347.189 137.871 347.527 140.422C347.864 142.973 347.176 145.555 345.612 147.599L306.28 198.889C305.37 200.071 304.2 201.027 302.861 201.683C301.522 202.34 300.049 202.679 298.558 202.675L298.543 202.691Z" fill="white"/>
<path d="M245.652 97.9468C244.756 97.9439 243.898 97.5866 243.264 96.9529C242.631 96.3193 242.274 95.4607 242.272 94.5648C242.268 94.2988 242.298 94.0333 242.361 93.7748L259.861 16.6838C259.994 16.1031 260.277 15.5673 260.681 15.1303C261.086 14.6933 261.599 14.3702 262.168 14.1936C262.737 14.017 263.342 13.993 263.923 14.1239C264.504 14.2549 265.041 14.5363 265.479 14.9398L323.503 68.6678C323.94 69.0726 324.262 69.5848 324.439 70.1535C324.615 70.7221 324.64 71.3271 324.509 71.9079C324.378 72.4888 324.097 73.0252 323.694 73.4633C323.291 73.9015 322.78 74.2262 322.212 74.4048L246.672 97.7948C246.341 97.8957 245.998 97.947 245.652 97.9468Z" fill="#3F3D56"/>
<path d="M293.11 41.5908L256.663 34.3378L257.237 31.8068L289.463 38.2128L293.11 41.5908Z" fill="white"/>
<path d="M321.809 68.1759L252.124 54.3099L252.698 51.7659L318.156 64.7839L321.809 68.1759Z" fill="white"/>
<path d="M296.879 81.4298L291.649 83.0468L247.597 74.2808L248.17 71.7368L296.879 81.4298Z" fill="white"/>
<path d="M110.982 210.703C115.111 209.673 117.624 205.491 116.594 201.361C115.565 197.232 111.383 194.719 107.253 195.749C103.124 196.778 100.611 200.96 101.64 205.09C102.67 209.219 106.852 211.732 110.982 210.703Z" fill="#3b62cdff"/>
<path d="M42.4646 28.0954C45.4141 27.36 47.2089 24.3728 46.4736 21.4233C45.7382 18.4739 42.751 16.679 39.8015 17.4144C36.852 18.1498 35.0571 21.1369 35.7925 24.0864C36.5279 27.0359 39.5151 28.8308 42.4646 28.0954Z" fill="#FF6584"/>
<path d="M74.1596 172.232C77.1091 171.497 78.9039 168.51 78.1686 165.56C77.4332 162.611 74.446 160.816 71.4965 161.551C68.547 162.287 66.7522 165.274 67.4875 168.223C68.2229 171.173 71.2101 172.968 74.1596 172.232Z" fill="#3962d3ff"/>
<path d="M102.407 258.221C105.356 257.486 107.151 254.499 106.416 251.549C105.68 248.6 102.693 246.805 99.7435 247.54C96.794 248.276 94.9992 251.263 95.7346 254.212C96.4699 257.162 99.4571 258.957 102.407 258.221Z" fill="#E6E6E6"/>
<path d="M8.00358 79.8114C10.9531 79.076 12.7479 76.0888 12.0126 73.1393C11.2772 70.1899 8.28999 68.395 5.34051 69.1304C2.39103 69.8658 0.59615 72.8529 1.33154 75.8024C2.06693 78.7519 5.0541 80.5468 8.00358 79.8114Z" fill="#CCCCCC"/>
<path d="M153.656 178.333C149.307 176.855 145.371 174.367 142.169 171.074C138.967 167.781 136.592 163.776 135.237 159.387C134.859 158.141 134.31 156.743 135.124 155.561C135.42 155.103 135.863 154.759 136.38 154.586C136.896 154.412 137.457 154.419 137.969 154.605C138.585 154.923 139.078 155.435 139.374 156.061C139.67 156.688 139.752 157.394 139.607 158.071C139.461 158.749 139.098 159.359 138.571 159.81C138.044 160.26 137.384 160.524 136.692 160.562C133.269 161.039 130.722 158.176 128.66 155.885C123.959 150.668 118.6 145.638 111.813 143.347C105.532 141.228 98.0058 141.876 92.9533 146.45C92.0697 147.251 93.3689 148.563 94.2515 147.767C99.2617 143.23 106.92 143.188 112.879 145.716C116.41 147.298 119.645 149.473 122.443 152.147C123.905 153.491 125.289 154.918 126.628 156.386C127.876 157.876 129.254 159.254 130.746 160.501C133.272 162.438 137.058 163.368 139.772 161.217C140.366 160.694 140.829 160.04 141.125 159.306C141.42 158.572 141.54 157.78 141.475 156.991C141.409 156.203 141.16 155.441 140.747 154.766C140.335 154.091 139.77 153.522 139.098 153.104C138.455 152.786 137.743 152.633 137.026 152.658C136.308 152.683 135.609 152.885 134.989 153.247C134.369 153.608 133.849 154.118 133.475 154.73C133.101 155.343 132.884 156.038 132.845 156.755C132.92 158.397 133.315 160.01 134.007 161.501C135.607 165.841 138.16 169.766 141.478 172.987C144.796 176.209 148.795 178.645 153.18 180.116C154.311 180.484 154.792 178.7 153.663 178.333L153.656 178.333Z" fill="#CCCCCC"/>
<path d="M20.6697 140.901L25.307 143.687L34.4618 128.451L29.8245 125.664L20.6697 140.901Z" fill="#B3B3B3"/>
<path d="M19.9816 269.407C24.1111 268.377 26.624 264.195 25.5944 260.065C24.5649 255.936 20.3826 253.423 16.2531 254.453C12.1236 255.482 9.61065 259.665 10.6403 263.794C11.6698 267.923 15.8521 270.436 19.9816 269.407Z" fill="#4970ddff"/>
</svg>
